HIERARCHY
ROOT SpineBase
{
  OFFSET 0.000000 0.000000 0.000000
  CHANNELS 6 Xposition Yposition Zposition Zrotation Xrotation Yrotation
  JOINT SpineMid
  {
    OFFSET 0.000000 30.765428 0.000000
    CHANNELS 3 Zrotation Xrotation Yrotation
    JOINT SpineShoulder
    {
      OFFSET 0.076012 22.828015 -0.730920
      CHANNELS 3 Zrotation Xrotation Yrotation
      JOINT Neck
      {
        OFFSET 0.031723 7.530681 -0.552808
        CHANNELS 3 Zrotation Xrotation Yrotation
        JOINT Head
        {
          OFFSET -0.486435 14.970529 -2.736483
          CHANNELS 3 Zrotation Xrotation Yrotation
          End Site
          {
            OFFSET 0 0 0
          }
        }
      }
      JOINT ShoulderLeft
      {
        OFFSET -18.739132 -2.241519 3.093827
        CHANNELS 3 Zrotation Xrotation Yrotation
        JOINT ElbowLeft
        {
          OFFSET -6.051500 -25.770812 2.069542
          CHANNELS 3 Zrotation Xrotation Yrotation
          JOINT WristLeft
          {
            OFFSET -0.507372 -26.551355 -3.043331
            CHANNELS 3 Zrotation Xrotation Yrotation
            JOINT HandLeft
            {
              OFFSET 0.194974 -8.379540 -1.198161
              CHANNELS 3 Zrotation Xrotation Yrotation
              JOINT HandTipLeft
              {
                OFFSET 0.999714 -8.370861 -0.968183
                CHANNELS 3 Zrotation Xrotation Yrotation
                End Site
                {
                  OFFSET 0 0 0
                }
              }
              JOINT ThumbLeft
              {
                OFFSET 3.131345 -1.787297 -3.266086
                CHANNELS 3 Zrotation Xrotation Yrotation
                End Site
                {
                  OFFSET 0 0 0
                }
              }
            }
          }
        }
      }
      JOINT ShoulderRight
      {
        OFFSET 18.569257 -3.263916 -2.936914
        CHANNELS 3 Zrotation Xrotation Yrotation
        JOINT ElbowRight
        {
          OFFSET 5.559522 -25.952265 1.707582
          CHANNELS 3 Zrotation Xrotation Yrotation
          JOINT WristRight
          {
            OFFSET 3.010498 -26.324961 -3.697820
            CHANNELS 3 Zrotation Xrotation Yrotation
            JOINT HandRight
            {
              OFFSET 1.224287 -7.993522 -1.939609
              CHANNELS 3 Zrotation Xrotation Yrotation
              JOINT HandTipRight
              {
                OFFSET 1.284330 -8.601274 0.581835
                CHANNELS 3 Zrotation Xrotation Yrotation
                End Site
                {
                  OFFSET 0 0 0
                }
              }
              JOINT ThumbRight
              {
                OFFSET 3.386083 -0.300883 -4.733983
                CHANNELS 3 Zrotation Xrotation Yrotation
                End Site
                {
                  OFFSET 0 0 0
                }
              }
            }
          }
        }
      }
    }
  }
  JOINT HipLeft
  {
    OFFSET -6.096147 0.107974 -2.462503
    CHANNELS 3 Zrotation Xrotation Yrotation
    JOINT KneeLeft
    {
      OFFSET 0.363816 -41.517468 7.551370
      CHANNELS 3 Zrotation Xrotation Yrotation
      JOINT AnkleLeft
      {
        OFFSET 2.527515 -36.859613 7.149576
        CHANNELS 3 Zrotation Xrotation Yrotation
        JOINT FootLeft
        {
          OFFSET -1.327314 -4.531147 -14.263197
          CHANNELS 3 Zrotation Xrotation Yrotation
          End Site
          {
            OFFSET 0 0 0
          }
        }
      }
    }
  }
  JOINT HipRight
  {
    OFFSET 6.271084 1.090389 -4.518432
    CHANNELS 3 Zrotation Xrotation Yrotation
    JOINT KneeRight
    {
      OFFSET 7.092435 -40.926270 4.740793
      CHANNELS 3 Zrotation Xrotation Yrotation
      JOINT AnkleRight
      {
        OFFSET -0.185406 -35.828321 8.456012
        CHANNELS 3 Zrotation Xrotation Yrotation
        JOINT FootRight
        {
          OFFSET -1.470368 -4.540466 -14.267962
          CHANNELS 3 Zrotation Xrotation Yrotation
          End Site
          {
            OFFSET 0 0 0
          }
        }
      }
    }
  }
}
MOTION
Frames: 16
Frame Time: 0.033333
-8.406478 83.502962 357.537920 -0.000000 0.000000 9.438538 0.000000 0.000000 -9.438538 -0.000000 0.000000 0.000000 -0.000000 0.000000 0.000000 0.000000 0.000000 0.000000 -0.000000 0.000000 0.000000 -0.000000 0.000000 0.000000 -0.000000 0.000000 0.000000 -0.000000 0.000000 0.000000 0.000000 0.000000 0.000000 0.000000 0.000000 0.000000 -0.000000 0.000000 0.000000 -0.000000 0.000000 0.000000 -0.000000 0.000000 0.000000 -0.000000 0.000000 0.000000 0.000000 0.000000 0.000000 0.000000 0.000000 0.000000 0.000000 0.000000 -9.438538 -0.000000 0.000000 0.000000 -0.000000 0.000000 0.000000 0.000000 0.000000 0.000000 0.000000 0.000000 -9.438538 -0.000000 0.000000 0.000000 -0.000000 0.000000 0.000000 0.000000 0.000000 0.000000
-8.376089 83.496077 357.509106 0.016381 0.033602 9.371345 -0.021634 -0.030486 -9.371356 -0.000000 0.000000 0.000000 -0.000000 0.000000 0.000000 0.000000 0.000000 0.000000 -0.000000 0.000000 0.000000 -0.000000 0.000000 0.000000 -0.000000 0.000000 0.000000 0.197718 -1.277765 -0.173458 0.000000 0.000000 0.000000 0.000000 0.000000 0.000000 -0.000000 0.000000 0.000000 -0.000000 0.000000 0.000000 -0.000000 0.000000 0.000000 0.057683 0.842041 0.129267 0.000000 0.000000 0.000000 0.000000 0.000000 0.000000 -0.021634 -0.030486 -9.371356 -0.000000 0.000000 0.000000 -0.000000 0.000000 0.000000 0.000000 0.000000 0.000000 -0.021634 -0.030486 -9.371356 -0.000000 0.000000 0.000000 -0.000000 0.000000 0.000000 0.000000 0.000000 0.000000
-8.351591 83.491308 357.485519 0.027435 0.060128 9.322245 -0.036812 -0.054890 -9.322277 -0.000000 0.000000 0.000000 -0.000000 0.000000 0.000000 0.000000 0.000000 0.000000 -0.000000 0.000000 0.000000 -0.000000 0.000000 0.000000 -0.514443 -0.974296 0.046576 0.881190 -1.327580 -0.372245 0.000000 0.000000 0.000000 0.000000 0.000000 0.000000 -0.000000 0.000000 0.000000 -0.784833 -0.229925 0.082465 1.215633 -0.580421 -0.313131 -0.481938 2.585920 0.496599 0.000000 0.000000 0.000000 0.000000 0.000000 0.000000 -0.036812 -0.054890 -9.322277 -0.000000 0.000000 0.000000 -0.000000 0.000000 0.000000 0.000000 0.000000 0.000000 -0.036812 -0.054890 -9.322277 -0.000000 0.000000 0.000000 -0.000000 0.000000 0.000000 0.000000 0.000000 0.000000
-8.332983 83.488655 357.467158 0.033169 0.079593 9.291250 -0.045584 -0.073193 -9.291302 -0.000000 0.000000 0.000000 -0.000000 0.000000 0.000000 0.000000 0.000000 0.000000 -0.000000 0.000000 0.000000 -0.000000 0.000000 0.000000 -0.693529 -1.266917 0.062126 1.203669 -1.801500 -0.501866 0.000000 0.000000 0.000000 0.000000 0.000000 0.000000 -0.000000 0.000000 0.000000 -1.085740 -0.328345 0.112022 1.726895 -0.730177 -0.433943 -0.954078 3.868328 0.739267 0.000000 0.000000 0.000000 0.000000 0.000000 0.000000 -0.045584 -0.073193 -9.291302 -0.000000 0.000000 0.000000 -0.000000 0.000000 0.000000 0.000000 0.000000 0.000000 -0.045584 -0.073193 -9.291302 -0.000000 0.000000 0.000000 -0.000000 0.000000 0.000000 0.000000 0.000000 0.000000
-8.320266 83.488118 357.454024 0.033589 0.092004 9.278366 -0.047983 -0.085385 -9.278428 -0.000000 0.000000 0.000000 -0.000000 0.000000 0.000000 0.000000 0.000000 0.000000 -0.000000 0.000000 0.000000 -0.000000 0.000000 0.000000 -0.817725 -1.423800 0.073777 1.446754 -2.151885 -0.591724 0.000000 0.000000 0.000000 0.000000 0.000000 0.000000 -0.000000 0.000000 0.000000 -1.325638 -0.415577 0.134131 2.174397 -0.785354 -0.531062 -1.579071 5.153191 0.986786 0.000000 0.000000 0.000000 0.000000 0.000000 0.000000 -0.047983 -0.085385 -9.278428 -0.000000 0.000000 0.000000 -0.000000 0.000000 0.000000 0.000000 0.000000 0.000000 -0.047983 -0.085385 -9.278428 -0.000000 0.000000 0.000000 -0.000000 0.000000 0.000000 0.000000 0.000000 0.000000
-8.313440 83.489697 357.446116 0.028699 0.097369 9.283593 -0.044030 -0.091464 -9.283653 -0.000000 0.000000 0.000000 -0.000000 0.000000 0.000000 0.000000 0.000000 0.000000 -0.000000 0.000000 0.000000 -0.000000 0.000000 0.000000 -0.885692 -1.442419 0.082094 1.610230 -2.380129 -0.640884 0.000000 0.000000 0.000000 0.000000 0.000000 0.000000 -0.000000 0.000000 0.000000 -1.504544 -0.491538 0.149000 2.558428 -0.745461 -0.604666 -2.360403 6.450002 1.245054 0.000000 0.000000 0.000000 0.000000 0.000000 0.000000 -0.044030 -0.091464 -9.283653 -0.000000 0.000000 0.000000 -0.000000 0.000000 0.000000 0.000000 0.000000 0.000000 -0.044030 -0.091464 -9.283653 -0.000000 0.000000 0.000000 -0.000000 0.000000 0.000000 0.000000 0.000000 0.000000
-8.326334 83.497171 357.455332 0.006439 0.084765 9.341992 -0.020114 -0.082595 -9.342011 -0.000000 0.000000 0.000000 -0.000000 0.000000 0.000000 0.000000 0.000000 0.000000 -0.000000 0.000000 0.000000 -0.000000 0.000000 0.000000 -0.650748 -1.414427 0.052203 1.475900 -1.474359 -0.509322 0.000000 0.000000 0.000000 0.000000 0.000000 0.000000 -0.000000 0.000000 0.000000 -1.496606 -0.507242 0.145913 2.292526 -0.753482 -0.543805 -3.879404 9.065474 1.651028 0.000000 0.000000 0.000000 0.000000 0.000000 0.000000 -0.020114 -0.082595 -9.342011 -0.000000 0.000000 0.000000 -0.000000 0.000000 0.000000 0.000000 0.000000 0.000000 -0.020114 -0.082595 -9.342011 -0.000000 0.000000 0.000000 -0.000000 0.000000 0.000000 0.000000 0.000000 0.000000
-8.339526 83.503585 357.468453 -0.020471 0.062175 9.395075 0.010047 -0.064683 -9.395058 -0.000000 0.000000 0.000000 -0.000000 0.000000 0.000000 0.000000 0.000000 0.000000 -0.000000 0.000000 0.000000 -0.000000 0.000000 0.000000 -0.629193 -0.948321 0.062776 1.805756 -1.883824 -0.538794 0.000000 0.000000 0.000000 0.000000 0.000000 0.000000 -0.000000 0.000000 0.000000 -1.717285 -0.689922 0.152392 3.149850 -0.287697 -0.674237 -4.630569 9.606744 1.903588 0.000000 0.000000 0.000000 0.000000 0.000000 0.000000 0.010047 -0.064683 -9.395058 -0.913931 -0.352965 -0.204285 0.912684 0.356177 0.198633 0.000000 0.000000 0.000000 0.010047 -0.064683 -9.395058 -0.000000 0.000000 0.000000 -0.000000 0.000000 0.000000 0.000000 0.000000 0.000000
-8.353430 83.507279 357.475474 -0.050641 0.045644 9.468869 0.042442 -0.053353 -9.468830 -0.000000 0.000000 0.000000 -0.000000 0.000000 0.000000 0.000000 0.000000 0.000000 -0.000000 0.000000 0.000000 -0.000000 0.000000 0.000000 -0.000000 0.000000 0.000000 1.267806 -3.549460 -0.532599 0.000000 0.000000 0.000000 0.000000 0.000000 0.000000 -0.000000 0.000000 0.000000 -1.770025 -0.733642 0.153829 3.632628 -0.092910 -0.763336 -5.102119 9.554506 1.997912 0.000000 0.000000 0.000000 0.000000 0.000000 0.000000 1.003877 0.229987 -9.302359 -2.006491 -0.944447 -0.433505 1.099604 0.517618 0.243874 0.000000 0.000000 0.000000 0.042442 -0.053353 -9.468830 -0.000000 0.000000 0.000000 -0.000000 0.000000 0.000000 0.000000 0.000000 0.000000
-8.353041 83.508187 357.470889 -0.062140 0.043222 9.537818 0.054119 -0.052921 -9.537770 -0.000000 0.000000 0.000000 -0.000000 0.000000 0.000000 0.000000 0.000000 0.000000 -0.000000 0.000000 0.000000 -0.000000 0.000000 0.000000 -0.000000 0.000000 0.000000 1.130394 -3.167043 -0.478790 0.000000 0.000000 0.000000 0.000000 0.000000 0.000000 -0.000000 0.000000 0.000000 -1.574359 -0.700701 0.131721 3.483886 0.451160 -0.668941 -6.138961 9.241517 1.942267 0.000000 0.000000 0.000000 0.000000 0.000000 0.000000 0.054119 -0.052921 -9.537770 -0.720803 -0.563359 -0.181893 0.719046 0.565600 0.174801 0.000000 0.000000 0.000000 0.054119 -0.052921 -9.537770 -0.000000 0.000000 0.000000 -0.000000 0.000000 0.000000 0.000000 0.000000 0.000000
-8.337231 83.508775 357.458236 -0.052454 0.053958 9.547475 0.042778 -0.061911 -9.547427 -0.000000 0.000000 0.000000 -0.000000 0.000000 0.000000 0.000000 0.000000 0.000000 -0.000000 0.000000 0.000000 -0.000000 0.000000 0.000000 -0.769328 0.862225 0.135732 2.465993 -1.596133 -0.371056 0.000000 0.000000 0.000000 0.000000 0.000000 0.000000 -0.000000 0.000000 0.000000 -1.221408 -0.646884 0.090885 3.165274 0.857548 -0.566907 -7.643927 9.248110 1.946364 0.000000 0.000000 0.000000 0.000000 0.000000 0.000000 0.042778 -0.061911 -9.547427 -0.000000 0.000000 0.000000 -0.000000 0.000000 0.000000 0.000000 0.000000 0.000000 0.042778 -0.061911 -9.547427 -0.000000 0.000000 0.000000 -0.000000 0.000000 0.000000 0.000000 0.000000 0.000000
-8.302932 83.511425 357.430145 -0.019401 0.083328 9.513860 0.005361 -0.085389 -9.513842 -0.000000 0.000000 0.000000 -0.000000 0.000000 0.000000 0.000000 0.000000 0.000000 -0.000000 0.000000 0.000000 -0.000000 0.000000 0.000000 -1.041702 0.801260 0.174744 2.571863 -1.352808 -0.373496 0.000000 0.000000 0.000000 0.000000 0.000000 0.000000 -0.000000 0.000000 0.000000 -0.929219 -0.641283 0.052080 2.627291 1.705484 -0.344086 -7.980114 10.522156 2.097930 0.000000 0.000000 0.000000 0.000000 0.000000 0.000000 0.005361 -0.085389 -9.513842 -0.000000 0.000000 0.000000 -0.000000 0.000000 0.000000 0.000000 0.000000 0.000000 0.005361 -0.085389 -9.513842 -0.000000 0.000000 0.000000 -0.000000 0.000000 0.000000 0.000000 0.000000 0.000000
-8.289185 83.511402 357.415066 -0.018104 0.099886 9.510108 0.001352 -0.101505 -9.510091 -0.000000 0.000000 0.000000 -0.000000 0.000000 0.000000 0.000000 0.000000 0.000000 -0.000000 0.000000 0.000000 -0.000000 0.000000 0.000000 -1.046349 0.998799 0.181791 2.572008 -0.916061 -0.303711 0.000000 0.000000 0.000000 0.000000 0.000000 0.000000 -0.000000 0.000000 0.000000 -0.000000 0.000000 0.000000 1.180924 0.820047 -0.168850 -7.311487 11.976592 2.293407 0.000000 0.000000 0.000000 0.000000 0.000000 0.000000 -0.685609 0.350904 -9.642586 0.753047 -0.330925 0.136165 -0.000000 0.000000 0.000000 0.000000 0.000000 0.000000 0.001352 -0.101505 -9.510091 -0.000000 0.000000 0.000000 -0.000000 0.000000 0.000000 0.000000 0.000000 0.000000
-8.277119 83.503522 357.399019 -0.025423 0.105483 9.503614 0.007657 -0.108233 -9.503584 -0.000000 0.000000 0.000000 -0.000000 0.000000 0.000000 0.000000 0.000000 0.000000 -0.000000 0.000000 0.000000 -0.000000 0.000000 0.000000 -1.349108 1.275559 0.237299 2.908572 -2.711403 -0.504342 0.000000 0.000000 0.000000 0.000000 0.000000 0.000000 -0.000000 0.000000 0.000000 -0.000000 0.000000 0.000000 0.764166 1.127277 -0.020215 -7.347202 12.532907 2.305730 0.000000 0.000000 0.000000 0.000000 0.000000 0.000000 -1.141975 0.298807 -9.718371 2.132576 -0.665344 0.374272 -0.927734 0.464240 -0.144556 0.000000 0.000000 0.000000 0.007657 -0.108233 -9.503584 -0.000000 0.000000 0.000000 -0.000000 0.000000 0.000000 0.000000 0.000000 0.000000
-8.259459 83.502454 357.378360 -0.028362 0.109878 9.491944 0.009853 -0.113051 -9.491907 -0.000000 0.000000 0.000000 -0.000000 0.000000 0.000000 0.000000 0.000000 0.000000 -0.000000 0.000000 0.000000 -0.000000 0.000000 0.000000 -1.413559 1.506599 0.255367 1.851756 -2.348694 -0.354699 0.000000 0.000000 0.000000 0.000000 0.000000 0.000000 -0.000000 0.000000 0.000000 -0.000000 0.000000 0.000000 0.383185 0.998918 0.056530 -7.452804 12.194707 2.166529 0.000000 0.000000 0.000000 0.000000 0.000000 0.000000 -1.477709 0.200060 -9.766547 2.713761 -0.376266 0.489838 -1.191883 0.330192 -0.205380 0.000000 0.000000 0.000000 0.009853 -0.113051 -9.491907 -0.000000 0.000000 0.000000 -0.000000 0.000000 0.000000 0.000000 0.000000 0.000000
-8.245240 83.507466 357.363673 -0.036276 0.105768 9.467445 0.018385 -0.110295 -9.467394 -0.000000 0.000000 0.000000 -0.000000 0.000000 0.000000 0.000000 0.000000 0.000000 -0.000000 0.000000 0.000000 -0.000000 0.000000 0.000000 -1.391439 1.273502 0.243746 0.884547 -2.435519 -0.310061 0.000000 0.000000 0.000000 0.000000 0.000000 0.000000 -0.000000 0.000000 0.000000 -0.000000 0.000000 0.000000 0.369066 0.828869 0.034651 -8.210702 13.316736 2.456220 0.000000 0.000000 0.000000 0.000000 0.000000 0.000000 -2.182643 0.055505 -9.870014 4.082665 0.194696 0.753884 -2.070172 2.108625 -0.341741 0.000000 0.000000 0.000000 0.018385 -0.110295 -9.467394 -0.000000 0.000000 0.000000 -0.000000 0.000000 0.000000 0.000000 0.000000 0.000000
